<svg id="Layer_2" fill="white" enable-background="new 0 0 32 32" height="512" viewBox="0 0 32 32" width="512" xmlns="http://www.w3.org/2000/svg"><path d="m24.56512 31.98357c4.68999.16646 8.46901-4.70366 7.17953-9.19272-.20341-.68396-.3875-1.66936-1.22595-1.79951-.00002.00001-10.40626-1.6393-10.40626-1.6393-.3518-.0562-.71193.07026-.95444.33567-.53915.59328-.96589 1.24848-1.2771 1.95676-3.22245-1.4697-6.06663-4.31167-7.53561-7.53615.84816-.4845 2.37145-1.0377 2.29202-2.23197-.00012-.00009-1.63943-10.4058-1.63943-10.4058-.12392-.82983-1.11835-1.02251-1.78085-1.22143-2.51467-.65884-5.21875.07703-7.0579 1.9167-1.38847 1.38795-2.15348 3.23751-2.15348 5.20572-.29929 13.2322 11.32932 24.88551 24.55947 24.61203zm-20.89886-28.31063c1.39882-1.41523 3.46003-1.87514 5.31969-1.27552 0-.00002 1.44988 9.20874 1.44988 9.20874-.80752.80489-2.9852.6412-2.51052 2.23518 1.68216 4.58512 5.63863 8.54004 10.22206 10.22252.57498.22956 1.27515-.13839 1.40926-.74472.15614-.64009.433-1.23233.82643-1.76679l9.20824 1.45092c1.17139 3.28086-1.55288 6.96174-5.0242 6.84859-5.99612.00008-11.62911-2.33034-15.86425-6.56549-4.24555-4.24555-6.57702-9.89571-6.56557-15.91276 0-1.40095.54331-2.715 1.52898-3.70067z"/></svg>